#N canvas 255 510 719 326 10;
#X obj 114 66 dumpOSC 57110;
#X symbolatom 114 123 10 0 0 0 - - -;
#X obj 216 90 route /foo;
#X obj 361 175 bng 15 250 50 0 empty empty empty 17 7 0 10 -262144
-1 -1;
#X obj 265 246 dac~;
#X obj 267 175 osc~ 440;
#X obj 267 213 *~;
#X obj 360 216 float 1;
#X msg 424 244 0;
#X obj 422 214 delay 50;
#X connect 0 0 1 0;
#X connect 0 0 2 0;
#X connect 2 0 3 0;
#X connect 3 0 7 0;
#X connect 3 0 9 0;
#X connect 5 0 6 0;
#X connect 6 0 4 0;
#X connect 6 0 4 1;
#X connect 7 0 6 1;
#X connect 8 0 6 1;
#X connect 9 0 8 0;
